<svg preserveAspectRatio="none"  width="1440" height="295" viewBox="0 0 1440 295" fill="none" xmlns="http://www.w3.org/2000/svg">
<path fill-rule="evenodd" clip-rule="evenodd" d="M0 36.4035L40 43.4035C80 50.4035 160 65.4035 240 93.4035C320 122.404 400 165.404 480 137.404C560 108.404 640 7.40354 720 0.403545C800 -6.59646 880 79.4035 960 108.404C1040 137.404 1120 108.404 1200 108.404C1280 108.404 1360 137.404 1400 151.404L1440 165.404V295.404H1400C1360 295.404 1280 295.404 1200 295.404C1120 295.404 1040 295.404 960 295.404C880 295.404 800 295.404 720 295.404C640 295.404 560 295.404 480 295.404C400 295.404 320 295.404 240 295.404C160 295.404 80 295.404 40 295.404H0V36.4035Z" fill="#A1D1F1" fill-opacity="0.5"/>
</svg>
