<svg preserveAspectRatio="none"  width="1440" height="432" viewBox="0 0 1440 432" fill="none" xmlns="http://www.w3.org/2000/svg">
<path fill-rule="evenodd" clip-rule="evenodd" d="M0 0L48 43C96 86 192 173 288 230C384 288 480 317 576 302C672 288 768 230 864 223C960 216 1056 259 1152 266C1248 274 1344 245 1392 230L1440 216V432H1392C1344 432 1248 432 1152 432C1056 432 960 432 864 432C768 432 672 432 576 432C480 432 384 432 288 432C192 432 96 432 48 432H0V0Z" fill="#A1D1F1" fill-opacity="0.8"/>
</svg>
