<svg preserveAspectRatio="none" width="1440" height="346" viewBox="0 0 1440 346" fill="none" xmlns="http://www.w3.org/2000/svg">
<path fill-rule="evenodd" clip-rule="evenodd" d="M0 216L48 202C96 188 192 159 288 173C384 188 480 245 576 238C672 231 768 159 864 152C960 144 1056 202 1152 188C1248 173 1344 87 1392 44L1440 0V346H1392C1344 346 1248 346 1152 346C1056 346 960 346 864 346C768 346 672 346 576 346C480 346 384 346 288 346C192 346 96 346 48 346H0V216Z" fill="#A1D1F1" fill-opacity="0.6"/>
</svg>
